<?xml version="1.0" encoding="utf-8"?>
<svg version="1.1" xmlns:xlink="http://www.w3.org/1999/xlink" width="35px" height="29px" xmlns="http://www.w3.org/2000/svg">
  <g transform="matrix(1 0 0 1 -17 -926 )">
    <path d="M 12.6622596153846 24.5099431818182  C 13.1951121794872 25.0317234848485  13.4615384615385 25.6496212121212  13.4615384615385 26.3636363636364  C 13.4615384615385 27.0776515151515  13.1951121794872 27.6955492424242  12.6622596153846 28.2173295454545  C 12.1294070512821 28.7391098484848  11.4983974358974 29  10.7692307692308 29  C 10.0400641025641 29  9.40905448717949 28.7391098484848  8.87620192307692 28.2173295454545  C 8.34334935897436 27.6955492424242  8.07692307692308 27.0776515151515  8.07692307692308 26.3636363636364  C 8.07692307692308 25.6496212121212  8.34334935897436 25.0317234848485  8.87620192307692 24.5099431818182  C 9.40905448717949 23.9881628787879  10.0400641025641 23.7272727272727  10.7692307692308 23.7272727272727  C 11.4983974358974 23.7272727272727  12.1294070512821 23.9881628787879  12.6622596153846 24.5099431818182  Z M 31.5084134615385 24.5099431818182  C 32.041266025641 25.0317234848485  32.3076923076923 25.6496212121212  32.3076923076923 26.3636363636364  C 32.3076923076923 27.0776515151515  32.041266025641 27.6955492424242  31.5084134615385 28.2173295454545  C 30.9755608974359 28.7391098484848  30.3445512820513 29  29.6153846153846 29  C 28.886217948718 29  28.2552083333333 28.7391098484848  27.7223557692308 28.2173295454545  C 27.1895032051282 27.6955492424242  26.9230769230769 27.0776515151515  26.9230769230769 26.3636363636364  C 26.9230769230769 25.6496212121212  27.1895032051282 25.0317234848485  27.7223557692308 24.5099431818182  C 28.2552083333333 23.9881628787879  28.886217948718 23.7272727272727  29.6153846153846 23.7272727272727  C 30.3445512820513 23.7272727272727  30.9755608974359 23.9881628787879  31.5084134615385 24.5099431818182  Z M 34.6003605769231 3.02769886363636  C 34.8667868589744 3.28858901515151  35 3.59753787878787  35 3.95454545454545  L 35 14.5  C 35 14.8295454545455  34.8843149038462 15.1213304924242  34.6529447115385 15.3753551136364  C 34.4215745192308 15.6293797348485  34.1376201923077 15.7769886363636  33.8010817307692 15.8181818181818  L 11.8419471153846 18.3309659090909  C 12.0242387820513 19.1548295454545  12.1153846153846 19.6354166666667  12.1153846153846 19.7727272727273  C 12.1153846153846 19.9924242424242  11.9471153846154 20.4318181818182  11.6105769230769 21  L 30.9615384615385 21  C 31.3261217948718 21.0909090909091  31.6416266025641 21.2213541666667  31.9080528846154 21.4822443181818  C 32.1744791666667 21.743134469697  32.3076923076923 22.0520833333333  32.3076923076923 22.4090909090909  C 32.3076923076923 22.7660984848485  32.1744791666667 23.0750473484848  31.9080528846154 23.3359375  C 31.6416266025641 23.5968276515152  31.3261217948718 23.7272727272727  30.9615384615385 23.7272727272727  L 9.42307692307692 23.7272727272727  C 9.05849358974359 23.7272727272727  8.74298878205128 23.5968276515152  8.4765625 23.3359375  C 8.21013621794872 23.0750473484848  8.07692307692308 22.7660984848485  8.07692307692308 22.4090909090909  C 8.07692307692308 22.2580492424242  8.13301282051282 22.0417850378788  8.24519230769231 21.7602982954545  C 8.3573717948718 21.4788115530303  8.46955128205128 21.2316524621212  8.58173076923077 21.0188210227273  C 8.69391025641026 20.8059895833333  8.84465144230769 20.5313683712121  9.03395432692308 20.1949573863636  C 9.22325721153846 19.8585464015151  9.33193108974359 19.6560132575758  9.35997596153846 19.5873579545455  L 5.63701923076923 2.63636363636364  L 1.34615384615385 2.63636363636364  C 0.981570512820513 2.63636363636364  0.666065705128205 2.50591856060606  0.399639423076923 2.24502840909091  C 0.133213141025641 1.98413825757576  0 1.67518939393939  0 1.31818181818182  C 0 0.961174242424241  0.133213141025641 0.652225378787875  0.399639423076923 0.391335227272729  C 0.666065705128205 0.130445075757573  0.981570512820513 0  1.34615384615385 0  L 6.73076923076923 0  C 6.95512820512821 0  7.15494791666667 0.044625946969695  7.33022836538461 0.133877840909091  C 7.50550881410256 0.223129734848485  7.64222756410256 0.329545454545454  7.74038461538461 0.453125  C 7.83854166666667 0.576704545454546  7.9296875 0.744910037878783  8.01382211538461 0.957741477272729  C 8.09795673076923 1.17057291666666  8.15404647435898 1.34907670454545  8.18209134615385 1.49325284090909  C 8.21013621794872 1.63742897727273  8.24869791666667 1.83996212121212  8.29777644230769 2.10085227272727  C 8.34685496794872 2.36174242424242  8.37840544871795 2.54024621212121  8.39242788461539 3  L 33.6538461538462 3  C 34.0184294871795 2.63636363636364  34.3339342948718 2.76680871212121  34.6003605769231 3.02769886363636  Z " fill-rule="nonzero" fill="#00d9d9" stroke="none" transform="matrix(1 0 0 1 17 926 )" />
  </g>
</svg>