<?xml version="1.0" encoding="utf-8"?>
<svg version="1.1" xmlns:xlink="http://www.w3.org/1999/xlink" width="20px" height="20px" xmlns="http://www.w3.org/2000/svg">
  <g transform="matrix(1 0 0 1 -39 -921 )">
    <path d="M 49 921  C 54.6 921  59 925.4  59 931  C 59 936.6  54.6 941  49 941  C 43.4 941  39 936.6  39 931  C 39 925.4  43.4 921  49 921  Z " fill-rule="nonzero" fill="#d9001b" stroke="none" />
    <path d="M 49 921.5  C 54.32 921.5  58.5 925.68  58.5 931  C 58.5 936.32  54.32 940.5  49 940.5  C 43.68 940.5  39.5 936.32  39.5 931  C 39.5 925.68  43.68 921.5  49 921.5  Z " stroke-width="1" stroke="#d9001b" fill="none" />
  </g>
</svg>