<?xml version="1.0" encoding="utf-8"?>
<svg version="1.1" xmlns:xlink="http://www.w3.org/1999/xlink" width="25px" height="33px" xmlns="http://www.w3.org/2000/svg">
  <g transform="matrix(1 0 0 1 -19 -25 )">
    <path d="M 0.116744186046513 12.0241255813953  C 0.116744186046513 18.0396418604651  3.75209302325581 24.7476976744186  11.0227906976744 32.1482930232558  L 11.0376744186046 32.1630279069767  C 11.826511627907 32.9660790697674  13.1251162790698 32.9844976744186  13.9362790697674 32.2035488372093  L 13.973488372093 32.166711627907  C 21.2516279069767 24.7845348837209  24.8906976744186 18.0727953488372  24.8906976744186 12.0278093023256  C 24.8906976744186 5.40447906976744  19.346511627907 0.0372976744186046  12.5074418604651 0.0372976744186046  C 5.66837209302326 0.0372976744186046  0.116744186046513 5.40079534883721  0.116744186046513 12.0241255813953  Z M 16.6525581395349 12.2967209302326  C 16.6525581395349 14.5658930232558  14.7920930232558 16.4077534883721  12.5 16.4077534883721  C 10.2079069767442 16.4077534883721  8.34744186046512 14.5658930232558  8.34744186046512 12.2967209302326  C 8.34744186046512 10.0275488372093  10.2079069767442 8.18568837209302  12.5 8.18568837209302  C 14.7920930232558 8.18568837209302  16.6525581395349 10.0275488372093  16.6525581395349 12.2967209302326  Z " fill-rule="nonzero" fill="#00d9d9" stroke="none" transform="matrix(1 0 0 1 19 25 )" />
  </g>
</svg>