<?xml version="1.0" encoding="utf-8"?>
<svg version="1.1" xmlns:xlink="http://www.w3.org/1999/xlink" width="13px" height="22px" xmlns="http://www.w3.org/2000/svg">
  <g transform="matrix(1 0 0 1 -31 -112 )">
    <path d="M 7.45638020833333 20.77109375  C 7.72157118055556 20.5018229166667  7.85416666666667 20.178125  7.85416666666667 19.8  C 7.85416666666667 19.421875  7.72157118055556 19.0981770833333  7.45638020833333 18.82890625  C 7.19118923611111 18.5596354166667  6.87239583333333 18.425  6.5 18.425  C 6.12760416666667 18.425  5.80881076388889 18.5596354166667  5.54361979166667 18.82890625  C 5.27842881944444 19.0981770833333  5.14583333333333 19.421875  5.14583333333333 19.8  C 5.14583333333333 20.178125  5.27842881944444 20.5018229166667  5.54361979166667 20.77109375  C 5.80881076388889 21.0403645833333  6.12760416666667 21.175  6.5 21.175  C 6.87239583333333 21.175  7.19118923611111 21.0403645833333  7.45638020833333 20.77109375  Z M 11.2141927083333 17.43671875  C 11.3213975694444 17.3278645833333  11.375 17.1989583333333  11.375 17.05  L 11.375 4.95  C 11.375 4.80104166666666  11.3213975694444 4.67213541666666  11.2141927083333 4.56328125  C 11.1069878472222 4.45442708333333  10.9800347222222 4.4  10.8333333333333 4.4  L 2.16666666666667 4.4  C 2.01996527777778 4.4  1.89301215277778 4.45442708333333  1.78580729166667 4.56328125  C 1.67860243055556 4.67213541666666  1.625 4.80104166666666  1.625 4.95  L 1.625 17.05  C 1.625 17.1989583333333  1.67860243055556 17.3278645833333  1.78580729166667 17.43671875  C 1.89301215277778 17.5455729166667  2.01996527777778 17.6  2.16666666666667 17.6  L 10.8333333333333 17.6  C 10.9800347222222 17.6  11.1069878472222 17.5455729166667  11.2141927083333 17.43671875  Z M 7.85416666666667 2.75  C 8.03472222222222 2.75  8.125 2.65833333333333  8.125 2.475  C 8.125 2.29166666666667  8.03472222222222 2.2  7.85416666666667 2.2  L 5.14583333333333 2.2  C 4.96527777777778 2.2  4.875 2.29166666666667  4.875 2.475  C 4.875 2.65833333333333  4.96527777777778 2.75  5.14583333333333 2.75  L 7.85416666666667 2.75  Z M 12.3567708333333 0.653125  C 12.7855902777778 1.08854166666667  13 1.60416666666667  13 2.2  L 13 19.8  C 13 20.3958333333333  12.7855902777778 20.9114583333333  12.3567708333333 21.346875  C 11.9279513888889 21.7822916666667  11.4201388888889 22  10.8333333333333 22  L 2.16666666666667 22  C 1.57986111111111 22  1.07204861111111 21.7822916666667  0.643229166666667 21.346875  C 0.214409722222222 20.9114583333333  0 20.3958333333333  0 19.8  L 0 2.2  C 0 1.60416666666667  0.214409722222222 1.08854166666667  0.643229166666667 0.653125  C 1.07204861111111 0.217708333333331  1.57986111111111 0  2.16666666666667 0  L 10.8333333333333 0  C 11.4201388888889 0  11.9279513888889 0.217708333333331  12.3567708333333 0.653125  Z " fill-rule="nonzero" fill="#aaaaaa" stroke="none" transform="matrix(1 0 0 1 31 112 )" />
  </g>
</svg>