<?xml version="1.0" encoding="utf-8"?>
<svg version="1.1" xmlns:xlink="http://www.w3.org/1999/xlink" width="14px" height="20px" xmlns="http://www.w3.org/2000/svg">
  <g transform="matrix(1 0 0 1 -30 -210 )">
    <path d="M 6.88787185354691 18.7421754385965  C 10.7138123569794 14.4530526315789  12.5837254004577 10.6355087719298  12.5837254004577 7.3299649122807  C 12.5837254004577 3.98175438596491  10.0392494279176 1.25782456140351  6.88787185354691 1.25782456140351  C 3.7364942791762 1.25782456140351  1.19201830663616 3.98175438596491  1.19201830663616 7.3299649122807  C 1.19201830663616 10.6197894736842  3.06398169336384 14.4373333333333  6.88787185354691 18.7421754385965  Z M 13.7216659038902 7.3299649122807  C 13.7216659038902 11.0195087719298  11.7164302059497 15.1132631578947  7.70390846681922 19.6134736842105  L 7.68340503432494 19.6359298245614  C 7.2323295194508 20.1164912280702  6.51060869565217 20.1052631578947  6.0718352402746 19.6112280701754  C 2.05931350114416 15.0975438596491  0.0540778032036635 11.0015438596491  0.0540778032036635 7.3299649122807  C 0.0540778032036635 3.28785964912281  3.11318993135012 0.0092631578947362  6.88787185354691 0.0092631578947362  C 10.6625537757437 0.0092631578947362  13.7216659038902 3.28561403508772  13.7216659038902 7.3299649122807  Z M 9.73579862700229 8.11817543859649  C 9.73579862700229 9.84056140350878  8.46048512585812 11.2373333333333  6.88787185354691 11.2373333333333  C 5.31525858123569 11.2373333333333  4.03994508009153 9.84056140350878  4.03994508009153 8.11817543859649  C 4.03994508009153 6.39578947368421  5.31525858123569 4.99901754385965  6.88787185354691 4.99901754385965  C 8.46048512585812 4.99901754385965  9.73579862700229 6.39578947368421  9.73579862700229 8.11817543859649  Z M 5.17993592677345 8.11817543859649  C 5.17993592677345 9.15115789473684  5.94471395881007 9.99101754385965  6.88787185354691 9.99101754385965  C 7.83102974828375 9.99101754385965  8.59580778032036 9.15340350877193  8.59580778032036 8.12042105263158  C 8.59580778032036 7.08743859649123  7.83102974828375 6.24757894736842  6.88787185354691 6.24757894736842  C 5.94471395881007 6.24757894736842  5.17993592677345 7.08519298245614  5.17993592677345 8.11817543859649  Z " fill-rule="nonzero" fill="#7f7f7f" stroke="none" transform="matrix(1 0 0 1 30 210 )" />
  </g>
</svg>