<?xml version="1.0" encoding="utf-8"?>
<svg version="1.1" xmlns:xlink="http://www.w3.org/1999/xlink" width="30px" height="25px" xmlns="http://www.w3.org/2000/svg">
  <g transform="matrix(1 0 0 1 -223 -930 )">
    <path d="M 10.8533653846154 21.1292613636364  C 11.3100961538462 21.579071969697  11.5384615384615 22.1117424242424  11.5384615384615 22.7272727272727  C 11.5384615384615 23.342803030303  11.3100961538462 23.8754734848485  10.8533653846154 24.3252840909091  C 10.3966346153846 24.7750946969697  9.85576923076923 25  9.23076923076923 25  C 8.60576923076923 25  8.06490384615385 24.7750946969697  7.60817307692308 24.3252840909091  C 7.15144230769231 23.8754734848485  6.92307692307692 23.342803030303  6.92307692307692 22.7272727272727  C 6.92307692307692 22.1117424242424  7.15144230769231 21.579071969697  7.60817307692308 21.1292613636364  C 8.06490384615385 20.6794507575758  8.60576923076923 20.4545454545455  9.23076923076923 20.4545454545455  C 9.85576923076923 20.4545454545455  10.3966346153846 20.6794507575758  10.8533653846154 21.1292613636364  Z M 27.0072115384615 21.1292613636364  C 27.4639423076923 21.579071969697  27.6923076923077 22.1117424242424  27.6923076923077 22.7272727272727  C 27.6923076923077 23.342803030303  27.4639423076923 23.8754734848485  27.0072115384615 24.3252840909091  C 26.5504807692308 24.7750946969697  26.0096153846154 25  25.3846153846154 25  C 24.7596153846154 25  24.21875 24.7750946969697  23.7620192307692 24.3252840909091  C 23.3052884615385 23.8754734848485  23.0769230769231 23.342803030303  23.0769230769231 22.7272727272727  C 23.0769230769231 22.1117424242424  23.3052884615385 21.579071969697  23.7620192307692 21.1292613636364  C 24.21875 20.6794507575758  24.7596153846154 20.4545454545455  25.3846153846154 20.4545454545455  C 26.0096153846154 20.4545454545455  26.5504807692308 20.6794507575758  27.0072115384615 21.1292613636364  Z M 29.6574519230769 2.61008522727273  C 29.8858173076923 2.83499053030303  30 3.10132575757575  30 3.40909090909091  L 30 12.5  C 30 12.7840909090909  29.9008413461538 13.0356297348485  29.7025240384615 13.2546164772727  C 29.5042067307692 13.473603219697  29.2608173076923 13.6008522727273  28.9723557692308 13.6363636363636  L 10.1502403846154 15.8025568181818  C 10.3064903846154 16.5127840909091  10.3846153846154 16.9270833333333  10.3846153846154 17.0454545454545  C 10.3846153846154 17.2348484848485  10.2403846153846 17.6136363636364  9.95192307692308 18  L 26.5384615384615 18  C 26.8509615384615 18.1818181818182  27.1213942307692 18.2942708333333  27.3497596153846 18.5191761363636  C 27.578125 18.7440814393939  27.6923076923077 19.0104166666667  27.6923076923077 19.3181818181818  C 27.6923076923077 19.625946969697  27.578125 19.8922821969697  27.3497596153846 20.1171875  C 27.1213942307692 20.3420928030303  26.8509615384615 20.4545454545455  26.5384615384615 20  L 8.07692307692308 20  C 7.76442307692308 20.4545454545455  7.49399038461539 20.3420928030303  7.265625 20.1171875  C 7.03725961538461 19.8922821969697  6.92307692307692 19.625946969697  6.92307692307692 19.3181818181818  C 6.92307692307692 19.1879734848485  6.97115384615385 19.0015388257576  7.06730769230769 18.7588778409091  C 7.16346153846154 18.5162168560606  7.25961538461539 18.3031486742424  7.35576923076923 18.1196732954545  C 7.45192307692308 17.9361979166667  7.58112980769231 17.6994554924242  7.74338942307692 17.4094460227273  C 7.90564903846154 17.1194365530303  7.99879807692308 16.9448390151515  8.02283653846154 16.8856534090909  L 4.83173076923077 2.27272727272727  L 1.15384615384615 2.27272727272727  C 0.841346153846154 2.27272727272727  0.570913461538462 2.16027462121212  0.342548076923077 1.93536931818182  C 0.114182692307692 1.71046401515151  0 1.44412878787879  0 1.13636363636364  C 0 0.828598484848483  0.114182692307692 0.562263257575754  0.342548076923077 0.337357954545456  C 0.570913461538462 0.112452651515149  0.841346153846154 0  1.15384615384615 0  L 5.76923076923077 0  C 5.96153846153846 0  6.1328125 0.0384706439393923  6.28305288461538 0.115411931818182  C 6.43329326923077 0.19235321969697  6.55048076923077 0.284090909090909  6.63461538461538 0.390625  C 6.71875 0.497159090909091  6.796875 0.642163825757572  6.86899038461538 0.825639204545456  C 6.94110576923077 1.00911458333333  6.98918269230769 1.16299715909091  7.01322115384615 1.28728693181818  C 7.03725961538462 1.41157670454546  7.0703125 1.58617424242424  7.11237980769231 1.81107954545454  C 7.15444711538462 2.03598484848485  7.18149038461539 2.18986742424242  7.19350961538462 2.27272727272727  L 28.8461538461538 2.27272727272727  C 29.1586538461539 2.27272727272727  29.4290865384615 2.38517992424242  29.6574519230769 2.61008522727273  Z " fill-rule="nonzero" fill="#ffffff" stroke="none" transform="matrix(1 0 0 1 223 930 )" />
  </g>
</svg>