<?xml version="1.0" encoding="utf-8"?>
<svg version="1.1" xmlns:xlink="http://www.w3.org/1999/xlink" width="25px" height="25px" xmlns="http://www.w3.org/2000/svg">
  <g transform="matrix(1 0 0 1 -415 -929 )">
    <path d="M 24.833984375 18.0745442708333  C 24.9446614583333 18.8937717013889  25 19.7645399305556  25 20.6868489583333  C 25 21.8695746527778  24.5930989583333 22.8841145833333  23.779296875 23.73046875  C 22.9654947916667 24.5768229166667  21.9856770833333 25  20.83984375 25  L 4.16015625 25  C 3.01432291666667 25  2.03450520833333 24.5768229166667  1.220703125 23.73046875  C 0.406901041666667 22.8841145833333  0 21.8695746527778  0 20.6868489583333  C 0 19.7645399305556  0.0553385416666668 18.8937717013889  0.166015625 18.0745442708333  C 0.276692708333333 17.2553168402778  0.481770833333333 16.4306640625  0.78125 15.6005859375  C 1.08072916666667 14.7705078125  1.46158854166667 14.0597873263889  1.923828125 13.4684244791667  C 2.38606770833333 12.8770616319444  2.998046875 12.3942057291667  3.759765625 12.0198567708333  C 4.521484375 11.6455078125  5.39713541666667 11.4583333333333  6.38671875 11.4583333333333  C 8.09244791666667 12.8472222222222  10.1302083333333 13.5416666666667  12.5 13.5416666666667  C 14.8697916666667 13.5416666666667  16.9075520833333 12.8472222222222  18.61328125 11.4583333333333  C 19.6028645833333 11.4583333333333  20.478515625 11.6455078125  21.240234375 12.0198567708333  C 22.001953125 12.3942057291667  22.6139322916667 12.8770616319444  23.076171875 13.4684244791667  C 23.5384114583333 14.0597873263889  23.9192708333333 14.7705078125  24.21875 15.6005859375  C 24.5182291666667 16.4306640625  24.7233072916667 17.2553168402778  24.833984375 18.0745442708333  Z M 17.802734375 1.8310546875  C 19.267578125 3.0517578125  20 4.52473958333333  20 6.25  C 20 7.97526041666667  19.267578125 9.4482421875  17.802734375 10.6689453125  C 16.337890625 11.8896484375  14.5703125 12.5  12.5 12.5  C 10.4296875 12.5  8.662109375 11.8896484375  7.197265625 10.6689453125  C 5.732421875 9.4482421875  5 7.97526041666667  5 6.25  C 5 4.52473958333333  5.732421875 3.0517578125  7.197265625 1.8310546875  C 8.662109375 0.6103515625  10.4296875 0  12.5 0  C 14.5703125 0  16.337890625 0.6103515625  17.802734375 1.8310546875  Z " fill-rule="nonzero" fill="#ffffff" stroke="none" transform="matrix(1 0 0 1 415 929 )" />
  </g>
</svg>