<?xml version="1.0" encoding="utf-8"?>
<svg version="1.1" xmlns:xlink="http://www.w3.org/1999/xlink" width="30px" height="35px" xmlns="http://www.w3.org/2000/svg">
  <g transform="matrix(1 0 0 1 -84 -7 )">
    <path d="M 27 3  L 3 3  L 3 28.2965581395349  C 2.59590697674419 30.4442790697674  4.74809302325581 32.3285581395349  7.5566511627907 32  L 22.4388837209302 32  C 25.2474418604651 32.3285581395349  27.3996279069767 30.4442790697674  27 28.2965581395349  L 27 3  Z M 0.113302325581394 0.0770232558139554  L 0.117767441860465 0  L 29.8866976744186 0  L 29.8866976744186 28.2920930232558  C 29.8866976744186 31.886511627907  26.5557209302326 34.8022325581395  22.4433488372093 34.8022325581395  L 7.5566511627907 34.8022325581395  C 3.44874418604651 34.8022325581395  0.113302325581394 31.886511627907  0.113302325581394 28.2920930232558  L 0.113302325581394 0.0770232558139554  Z M 6.59665116279071 16.7988837209302  L 6.5966511627907 21.1613023255814  L 5.07851162790698 21.1613023255814  L 5.07851162790698 13.7224186046512  L 6.35553488372094 13.7224186046512  L 9.02567441860465 18.0491162790698  L 9.06139534883722 18.0491162790698  L 9.06139534883722 13.7224186046512  L 10.5795348837209 13.7224186046512  L 10.5795348837209 21.1657674418605  L 9.31590697674419 21.1657674418605  L 6.63237209302326 16.7988837209302  L 6.59665116279071 16.7988837209302  Z M 15.8483720930233 19.6386976744186  L 15.8483720930233 19.6342325581395  L 15.8483720930233 21.1613023255814  L 11.5306046511628 21.1613023255814  L 11.5306046511628 13.7224186046512  L 15.8483720930233 13.7224186046512  L 15.8483720930233 15.249488372093  L 13.1335813953488 15.249488372093  L 13.1335813953488 16.7274418604651  L 15.6876279069767 16.7274418604651  L 15.6876279069767 18.1205581395349  L 13.1335813953488 18.1205581395349  L 13.1335813953488 19.6386976744186  L 15.8483720930233 19.6386976744186  Z M 20.7064186046512 16.5175813953488  L 20.6706976744186 16.5175813953488  L 19.608 21.1657674418605  L 18.0987906976744 21.1657674418605  L 16.4556279069767 13.7224186046512  L 18.1077209302326 13.7224186046512  L 18.9605581395349 18.7501395348837  L 18.9962790697674 18.7501395348837  L 20.0455813953488 13.7224186046512  L 21.3270697674419 13.7224186046512  L 22.3808372093023 18.7501395348837  L 22.4165581395349 18.7501395348837  L 23.2693953488372 13.7224186046512  L 24.921488372093 13.7224186046512  L 23.2783255813954 21.1657674418605  L 21.7691162790698 21.1657674418605  L 20.7064186046512 16.5175813953488  Z " fill-rule="nonzero" fill="#f59a23" stroke="none" transform="matrix(1 0 0 1 84 7 )" />
  </g>
</svg>