<?xml version="1.0" encoding="utf-8"?>
<svg version="1.1" xmlns:xlink="http://www.w3.org/1999/xlink" width="30px" height="30px" xmlns="http://www.w3.org/2000/svg">
  <g transform="matrix(1 0 0 1 -84 -84 )">
    <path d="M 18.8332631578947 5.74357894736842  L 15 1.90694736842105  L 11.1667368421053 5.74357894736842  L 5.74357894736842 5.74357894736842  L 5.74357894736842 11.1667368421053  L 1.90694736842105 15  L 5.74021052631579 18.8332631578947  L 5.74021052631579 24.2564210526316  L 11.1633684210526 24.2564210526316  L 15 28.093052631579  L 18.8332631578947 24.2597894736842  L 24.2564210526316 24.2597894736842  L 24.2564210526316 18.8366315789474  L 28.093052631579 15  L 24.2564210526316 11.1667368421053  L 24.2564210526316 5.74357894736842  L 18.8332631578947 5.74357894736842  Z M 5.74357894736842 3.86736842105263  L 10.3886315789474 3.87073684210526  L 13.6762105263158 0.583157894736843  C 14.4071578947368 -0.147789473684213  15.5928421052632 -0.147789473684213  16.3237894736842 0.583157894736843  L 19.6113684210526 3.87073684210526  L 24.2597894736842 3.87073684210526  C 25.2938947368421 3.87073684210526  26.1326315789474 4.70947368421053  26.1326315789474 5.74357894736842  L 26.1326315789474 10.392  L 29.4202105263158 13.6795789473684  C 30.1511578947368 14.4105263157895  30.1511578947368 15.5962105263158  29.4202105263158 16.3271578947368  L 26.1326315789474 19.6147368421053  L 26.1326315789474 24.2631578947368  C 26.1326315789474 25.2972631578947  25.2938947368421 26.136  24.2597894736842 26.136  L 19.6113684210526 26.136  L 16.3237894736842 29.4168421052632  C 15.5928421052632 30.1477894736842  14.4071578947368 30.1477894736842  13.6762105263158 29.4168421052632  L 10.3886315789474 26.1292631578947  L 5.74021052631579 26.1292631578947  C 4.70610526315789 26.1292631578947  3.86736842105263 25.2905263157895  3.86736842105263 24.2564210526316  L 3.86736842105263 19.608  L 0.583157894736843 16.3237894736842  C -0.147789473684213 15.5928421052632  -0.147789473684213 14.4071578947368  0.583157894736843 13.6762105263158  L 3.87073684210526 10.3886315789474  L 3.87073684210526 5.74021052631579  C 3.87073684210526 4.70610526315789  4.70947368421053 3.86736842105263  5.74357894736842 3.86736842105263  Z M 7.5221052631579 17.7149473684211  L 7.5221052631579 12.2850526315789  L 8.98736842105263 12.2850526315789  L 8.98736842105263 14.1848421052632  L 10.5873684210526 14.1848421052632  L 10.5873684210526 12.2850526315789  L 12.0593684210526 12.2850526315789  L 12.0593684210526 17.7149473684211  L 10.5873684210526 17.7149473684211  L 10.5873684210526 15.5187368421053  L 8.98736842105263 15.5187368421053  L 8.98736842105263 17.7149473684211  L 7.5221052631579 17.7149473684211  Z M 13.1709473684211 16.5831578947368  C 12.952 16.1621052631579  12.8442105263158 15.6366315789474  12.8442105263158 15.0033684210526  C 12.8442105263158 14.1174736842105  13.0597894736842 13.4269473684211  13.4909473684211 12.9317894736842  C 13.9221052631579 12.4366315789474  14.5216842105263 12.1907368421053  15.2930526315789 12.1907368421053  C 16.0812631578947 12.1907368421053  16.690947368421 12.4332631578947  17.1153684210526 12.9183157894737  C 17.5431578947369 13.4033684210526  17.7553684210526 14.0837894736842  17.7553684210526 14.9562105263158  C 17.7553684210526 15.5894736842105  17.6610526315789 16.1115789473684  17.4757894736842 16.5157894736842  C 17.2905263157895 16.9233684210526  17.021052631579 17.2366315789474  16.6673684210526 17.4623157894737  C 16.3136842105263 17.688  15.8757894736842 17.8025263157895  15.3503157894737 17.8025263157895  C 14.8147368421053 17.8025263157895  14.3734736842105 17.7048421052632  14.0231578947368 17.5094736842105  C 13.6728421052632 17.3141052631579  13.3898947368421 17.0042105263158  13.1709473684211 16.5831578947368  Z M 14.5789473684211 13.8244210526316  C 14.4004210526316 14.0602105263158  14.3094736842105 14.4576842105263  14.3094736842105 15.0101052631579  C 14.3094736842105 15.5591578947368  14.3970526315789 15.9532631578947  14.5755789473684 16.1924210526316  C 14.7541052631579 16.4315789473684  14.9966315789474 16.5528421052632  15.2997894736842 16.5528421052632  C 15.613052631579 16.5528421052632  15.8589473684211 16.4349473684211  16.0307368421053 16.2025263157895  C 16.2025263157895 15.9667368421053  16.2901052631579 15.5456842105263  16.2901052631579 14.9393684210526  C 16.2901052631579 14.4273684210526  16.1991578947368 14.0534736842105  16.0206315789474 13.8176842105263  C 15.8421052631579 13.5818947368421  15.5962105263158 13.464  15.2896842105263 13.464  C 14.9932631578947 13.464  14.7574736842105 13.5852631578947  14.5789473684211 13.8244210526316  Z M 18.045052631579 13.6256842105263  L 18.0416842105263 12.2850526315789  L 22.4947368421053 12.2850526315789  L 22.4947368421053 13.6256842105263  L 21.0025263157895 13.6256842105263  L 21.0025263157895 17.7149473684211  L 19.5372631578947 17.7149473684211  L 19.5372631578947 13.6256842105263  L 18.045052631579 13.6256842105263  Z " fill-rule="nonzero" fill="#d9001b" stroke="none" transform="matrix(1 0 0 1 84 84 )" />
  </g>
</svg>